Coordinates
version=1
nRows=5
nColumns=107
inDegrees=yes

Units are S.I. units (second, meters, Newtons, ...)
If the header above contains a line with 'inDegrees', this indicates whether rotational values are in degrees (yes) or radians (no).

endheader
time	sternoclavicular_r2	sternoclavicular_r3	unrotscap_r3	unrotscap_r2	acromioclavicular_r2	acromioclavicular_r3	acromioclavicular_r1	unrothum_r1	unrothum_r3	unrothum_r2	elv_angle	shoulder_elv	shoulder1_r2	shoulder_rot	elbow_flexion	pro_sup	deviation	flexion	proximal_distal_r1	proximal_distal_r3	cmc_flexion	cmc_abduction	mp_flexion	ip_flexion	mcp2_flexion	mcp2_abduction	pm2_flexion	md2_flexion	mcp3_flexion	mcp3_abduction	pm3_flexion	md3_flexion	mcp4_flexion	mcp4_abduction	pm4_flexion	md4_flexion	mcp5_flexion	mcp5_abduction	pm5_flexion	md5_flexion	bicpt_tx	bicpt_ty	bicpt_tz	bicpt2_tx	bicpt2_ty	bicpt2_tz	ptpt_tx	ptpt_ty	ptpt_tz	FCUpt_tx	FCUpt_ty	FCUpt_tz	EDCpt_tx	EDCpt_ty	EDCpt_tz	APLpt_tx	APLpt_ty	APLpt_tz	FPLpt_tx	FPLpt_ty	FPLpt_tz	FPLpt2_tx	FPLpt2_ty	FPLpt2_tz	PEC1pt2_tx	PEC1pt2_ty	PEC1pt2_tz	PEC1pt3_tx	PEC1pt3_ty	PEC1pt3_tz	PEC2pt2_tx	PEC2pt2_ty	PEC2pt2_tz	PEC2pt3_tx	PEC2pt3_ty	PEC2pt3_tz	PEC3pt2_tx	PEC3pt2_ty	PEC3pt2_tz	PEC3pt3_tx	PEC3pt3_ty	PEC3pt3_tz	DELT2pt2a_tx	DELT2pt2a_ty	DELT2pt2a_tz	DELT2pt2_tx	DELT2pt2_ty	DELT2pt2_tz	LAT1pt2_tx	LAT1pt2_ty	LAT1pt2_tz	LAT1pt3_tx	LAT1pt3_ty	LAT1pt3_tz	LAT2pt2_tx	LAT2pt2_ty	LAT2pt2_tz	LAT2pt3_tx	LAT2pt3_ty	LAT2pt3_tz	LAT3pt2_tx	LAT3pt2_ty	LAT3pt2_tz	LAT3pt3_tx	LAT3pt3_ty	LAT3pt3_tz
      1.20000000	     -0.30614804	      0.12966986	     -0.12966986	      0.30614804	     -0.06198875	      0.50097128	      0.22518314	     -0.22518314	     -0.50097128	      0.06198875	    103.21417648	     72.48327009	     -1.80142721	    -44.90169390	     32.74029994	     81.53949807	      0.32769247	      0.05186423	      0.35683247	      0.02593211	     18.26228262	    -10.83080300	    -24.38099984	      4.92380506	     15.10953135	      6.32086182	     33.30625398	    -13.53138967	     22.50409506	      1.82117307	     14.74542627	     14.80908357	     18.56585841	     -5.92727592	     17.24350959	     23.22708010	     14.55360531	    -13.85939236	     21.32098859	      5.54852348	      0.00098295	     -0.03135254	     -0.00490444	      0.01467823	     -0.01909406	     -0.00182595	      0.00152515	     -0.06879577	     -0.00661844	      0.01222867	     -0.18238596	     -0.00003157	     -0.00978472	      0.00333631	     -0.00061938	     -0.00005532	     -0.00002213	     -0.00011063	     -0.00007080	     -0.00021241	     -0.00011948	      0.00001610	     -0.00027128	     -0.00032553	      0.00237584	      0.00833558	      0.00579867	     -0.00777182	      0.01876513	     -0.01779868	      0.00237584	      0.00833558	      0.00579867	      0.00052349	      0.01739600	     -0.00914095	      0.00380600	      0.00463531	      0.01561031	      0.00000000	      0.00702180	      0.00000000	     -0.00680538	     -0.03144971	     -0.00578519	      0.02399884	     -0.00129132	     -0.01590405	     -0.00084564	      0.01417452	     -0.00579867	      0.00233557	      0.02045641	     -0.01691278	     -0.00567786	      0.01228190	     -0.00519464	     -0.01183894	      0.02593293	     -0.02903360	     -0.02222822	      0.01373156	     -0.00696645	     -0.01473828	      0.02995978	     -0.03628193
      1.23333333	     -0.30650018	      0.12981901	     -0.12981901	      0.30650018	     -0.06206005	      0.50154750	      0.22544215	     -0.22544215	     -0.50154750	      0.06206005	    103.42750552	     72.56664107	     -1.80515051	    -45.18985500	     32.13317111	     81.54964131	      0.32623407	     -0.02203477	      0.35563330	     -0.01101739	     20.00254659	     -9.73425258	    -27.44207311	      2.07704728	     17.25647751	      7.30150900	     34.75699155	    -13.03896955	     25.40251761	      2.37646792	     14.85070018	     15.27168490	     20.77312234	     -5.92758874	     20.66658384	     23.76919560	     17.27904159	    -13.87762284	     25.52499820	      5.35039039	      0.00096287	     -0.03128295	     -0.00489323	      0.01467728	     -0.01892913	     -0.00182427	      0.00152440	     -0.06879625	     -0.00661926	      0.01222982	     -0.18238563	     -0.00003132	     -0.00978593	      0.00333685	     -0.00061968	      0.00002214	      0.00000886	      0.00004428	      0.00002834	      0.00008503	      0.00004783	      0.00001182	     -0.00027779	     -0.00033334	      0.00237858	      0.00834517	      0.00580534	     -0.00778076	      0.01878671	     -0.01781916	      0.00237858	      0.00834517	      0.00580534	      0.00052409	      0.01741601	     -0.00915147	      0.00380927	      0.00464064	      0.01561877	      0.00000000	      0.00703806	      0.00000000	     -0.00681321	     -0.03148589	     -0.00579871	      0.02406859	     -0.00130203	     -0.01608520	     -0.00084661	      0.01419082	     -0.00580534	      0.00233826	      0.02047994	     -0.01693223	     -0.00568439	      0.01229602	     -0.00520061	     -0.01185256	      0.02596275	     -0.02906700	     -0.02225379	      0.01374736	     -0.00697447	     -0.01475523	      0.02999424	     -0.03632367
      1.26666667	     -0.30636050	      0.12975985	     -0.12975985	      0.30636050	     -0.06203177	      0.50131894	      0.22533941	     -0.22533941	     -0.50131894	      0.06203177	    103.45836502	     72.53357088	     -1.80568911	    -45.17565306	     32.14280523	     81.54529691	      0.32618098	     -0.02197911	      0.35558924	     -0.01098956	     20.00051464	     -9.73623547	    -27.44333412	      2.07657300	     17.25742314	      7.30210183	     34.75720547	    -13.03881135	     25.40585838	      2.37737697	     14.85136318	     15.27193822	     20.77781441	     -5.92704827	     20.66913394	     23.76956597	     17.28765672	    -13.87630763	     25.52920578	      5.35087025	      0.00096318	     -0.03128406	     -0.00489341	      0.01467768	     -0.01893175	     -0.00182499	      0.00152472	     -0.06879604	     -0.00661891	      0.01222932	     -0.18238577	     -0.00003143	     -0.00978541	      0.00333662	     -0.00061956	      0.00002208	      0.00000883	      0.00004417	      0.00002827	      0.00008480	      0.00004770	      0.00001182	     -0.00027778	     -0.00033334	      0.00237749	      0.00834137	      0.00580269	     -0.00777722	      0.01877815	     -0.01781104	      0.00237749	      0.00834137	      0.00580269	      0.00052385	      0.01740807	     -0.00914730	      0.00380798	      0.00463853	      0.01561542	      0.00000000	      0.00703161	      0.00000000	     -0.00681010	     -0.03147154	     -0.00579334	      0.02406517	     -0.00130150	     -0.01607626	     -0.00084623	      0.01418435	     -0.00580269	      0.00233719	      0.02047060	     -0.01692451	     -0.00568180	      0.01229042	     -0.00519824	     -0.01184716	      0.02595092	     -0.02905375	     -0.02224365	      0.01374109	     -0.00697129	     -0.01474851	      0.02998057	     -0.03630711
      1.30000000	     -0.30859756	      0.13070736	     -0.13070736	      0.30859756	     -0.06248473	      0.50497959	      0.22698485	     -0.22698485	     -0.50497959	      0.06248473	    102.63005291	     73.06321470	     -1.79123233	    -41.93719577	     31.78571250	     78.51730418	      0.33305258	     -0.03987407	      0.36120791	     -0.01993703	     20.81516350	    -10.26622481	    -29.12794308	      0.65537870	     18.33366029	      7.42649196	     33.68678625	    -11.77806539	     26.30341393	      2.30536620	     15.25708976	     15.56744642	     21.79920503	     -6.22975595	     22.33898370	     22.92743254	     19.66989823	    -13.82939555	     26.70006625	      5.37878366	      0.00095137	     -0.03124313	     -0.00488681	      0.01494935	     -0.01883474	     -0.00231819	      0.00174846	     -0.06865137	     -0.00637499	      0.01188706	     -0.18248318	     -0.00010122	     -0.00942205	      0.00317603	     -0.00053212	      0.00003948	      0.00001579	      0.00007896	      0.00005053	      0.00015160	      0.00008528	      0.00000983	     -0.00027968	     -0.00033562	      0.00239485	      0.00840228	      0.00584506	     -0.00783401	      0.01891527	     -0.01794109	      0.00239485	      0.00840228	      0.00584506	      0.00052768	      0.01753519	     -0.00921409	      0.00382868	      0.00467240	      0.01566877	      0.00000000	      0.00713529	      0.00000000	     -0.00685983	     -0.03170134	     -0.00587950	      0.02321678	     -0.00118175	     -0.01407440	     -0.00085240	      0.01428793	     -0.00584506	      0.00235426	      0.02062008	     -0.01704810	     -0.00572329	      0.01238017	     -0.00523620	     -0.01193367	      0.02614042	     -0.02926590	     -0.02240607	      0.01384143	     -0.00702219	     -0.01485620	      0.03019949	     -0.03657223
      1.33333333	     -0.30846910	      0.13065295	     -0.13065295	      0.30846910	     -0.06245872	      0.50476938	      0.22689036	     -0.22689036	     -0.50476938	      0.06245872	    102.66287986	     73.03280034	     -1.79180527	    -41.91930225	     31.79152649	     78.51657039	      0.33299746	     -0.03983275	      0.36116240	     -0.01991638	     20.81541553	    -10.26612130	    -29.12791989	      0.65530680	     18.33363150	      7.42732626	     33.68657000	    -11.77815455	     26.30432120	      2.30616558	     15.25683837	     15.56737484	     21.80015856	     -6.22930968	     22.33913939	     22.92743810	     19.67318198	    -13.82879197	     26.70183909	      5.37891273	      0.00095156	     -0.03124379	     -0.00488692	      0.01494940	     -0.01883632	     -0.00231830	      0.00174851	     -0.06865134	     -0.00637493	      0.01188698	     -0.18248320	     -0.00010123	     -0.00942197	      0.00317599	     -0.00053210	      0.00003943	      0.00001577	      0.00007885	      0.00005046	      0.00015139	      0.00008516	      0.00000983	     -0.00027967	     -0.00033561	      0.00239385	      0.00839878	      0.00584263	     -0.00783075	      0.01890740	     -0.01793363	      0.00239385	      0.00839878	      0.00584263	      0.00052746	      0.01752789	     -0.00921026	      0.00382749	      0.00467045	      0.01566573	      0.00000000	      0.00712931	      0.00000000	     -0.00685697	     -0.03168815	     -0.00587454	      0.02321170	     -0.00118109	     -0.01406356	     -0.00085205	      0.01428198	     -0.00584263	      0.00235328	      0.02061150	     -0.01704100	     -0.00572091	      0.01237501	     -0.00523402	     -0.01192870	      0.02612954	     -0.02925372	     -0.02239674	      0.01383567	     -0.00701927	     -0.01485002	      0.03018692	     -0.03655700
